<svg width="53" height="49" viewBox="0 0 53 49" fill="none" xmlns="http://www.w3.org/2000/svg">
<g id="309093_checked_accept_ok_yes_icon 1">
<path id="Done__x2014__Displayed_on_the_left_side_of_a_contextual_action_bar__x28_CAB_x29__to_allow_the_user_to_dismiss_it._2_" d="M46.1148 11.4333L24.594 31.0333L15.1249 22.05" stroke="#00712D" stroke-width="4" stroke-miterlimit="10"/>
<path id="Vector" d="M43.3172 26.5417C42.2411 34.5042 34.924 40.8334 26.3157 40.8334C16.8466 40.8334 9.09908 33.4834 9.09908 24.5C9.09908 15.5167 16.8466 8.16671 26.3157 8.16671C29.3286 8.16671 32.1263 8.98337 34.7088 10.2084L37.937 7.14587C34.4936 5.30837 30.6199 4.08337 26.3157 4.08337C14.4793 4.08337 4.79492 13.2709 4.79492 24.5C4.79492 35.7292 14.4793 44.9167 26.3157 44.9167C37.5065 44.9167 46.5453 36.9542 47.6213 26.5417H43.3172Z" fill="#00712D"/>
</g>
</svg>
