<svg width="52" height="49" viewBox="0 0 52 49" fill="none" xmlns="http://www.w3.org/2000/svg">
<g id="309093_checked_accept_ok_yes_icon 2">
<path id="Done__x2014__Displayed_on_the_left_side_of_a_contextual_action_bar__x28_CAB_x29__to_allow_the_user_to_dismiss_it._2_" d="M45.8853 11.4333L24.3645 31.0333L14.8954 22.05" stroke="#00712D" stroke-width="4" stroke-miterlimit="10"/>
<path id="Vector" d="M43.0877 26.5417C42.0116 34.5042 34.6946 40.8334 26.0862 40.8334C16.6171 40.8334 8.86959 33.4834 8.86959 24.5C8.86959 15.5167 16.6171 8.16671 26.0862 8.16671C29.0991 8.16671 31.8968 8.98337 34.4793 10.2084L37.7075 7.14587C34.2641 5.30837 30.3904 4.08337 26.0862 4.08337C14.2498 4.08337 4.56543 13.2709 4.56543 24.5C4.56543 35.7292 14.2498 44.9167 26.0862 44.9167C37.2771 44.9167 46.3158 36.9542 47.3918 26.5417H43.0877Z" fill="#00712D"/>
</g>
</svg>
