<svg width="60" height="51" viewBox="0 0 60 51" fill="none" xmlns="http://www.w3.org/2000/svg">
<g id="416371_carrot_food_vegetables_vegetarian_icon 1" clip-path="url(#clip0_20_37)">
<g id="Leafs">
<g id="Group">
<path id="Vector" d="M59.4748 0.659166C58.7752 0.0768986 57.6413 0.0768986 56.9427 0.659166L43.0373 12.2404L48.5406 3.99099C49.017 3.27742 48.7347 2.36533 47.9103 1.95344C47.086 1.54234 46.0319 1.78697 45.5554 2.50054L33.9675 19.8693C33.7875 20.1405 33.7471 20.4375 33.7734 20.7275C33.764 20.9721 33.8053 21.2183 33.9666 21.4434C34.2414 21.8279 34.7234 22.0413 35.242 22.0937C35.2477 22.0944 35.2533 22.0937 35.2589 22.0944C35.6322 22.1296 36.0233 22.0929 36.3796 21.9264L57.2371 12.206C58.0943 11.8067 58.4029 10.9438 57.9264 10.2771C57.451 9.61046 56.3706 9.39475 55.5134 9.79413L45.3557 14.5281L59.4748 2.76784C60.1744 2.18557 60.1744 1.24143 59.4748 0.659166ZM39.7755 17.1284L39.9059 16.9337C39.9115 16.9384 39.9125 16.9439 39.9172 16.9486C39.9509 16.976 39.995 16.9853 40.0297 17.0103L39.7755 17.1284Z" fill="#75A64B"/>
</g>
</g>
<g id="Body_1_">
<g id="Group_2">
<path id="Vector_2" d="M47.8207 16.9962C45.1722 14.7891 43.8471 13.6847 43.8471 13.6847C43.8471 13.6847 42.521 12.5796 39.8725 10.3732C37.225 8.16686 34.4724 6.04177 27.9498 11.4776C25.1757 13.7879 1.45494 42.387 1.45494 42.387C1.45494 42.387 -1.81717 46.2839 1.45494 49.0108C4.72612 51.7369 9.40311 49.0108 9.40311 49.0108C9.40311 49.0108 43.7223 29.2434 46.4964 26.9323C53.0191 21.4965 50.4691 19.2034 47.8207 16.9962Z" fill="#FB8512"/>
</g>
</g>
<g id="Stripes">
<g id="Group_3">
<path id="Vector_3" d="M16.2012 25.6669C16.053 25.5434 15.8785 25.459 15.6994 25.3887C15.0251 26.1851 14.3499 26.9847 13.6756 27.7826L17.5582 31.0238C18.2569 31.6061 19.3898 31.6061 20.0885 31.0238C20.7881 30.4408 20.7881 29.4958 20.0885 28.9128L16.2012 25.6669ZM14.3255 36.6081C13.6277 36.025 12.4939 36.025 11.7952 36.6081C11.0965 37.1904 11.0965 38.1353 11.7952 38.7183L13.8069 40.401C14.5055 40.9841 15.6385 40.9841 16.3371 40.401C17.0368 39.818 17.0368 38.8731 16.3371 38.2908L14.3255 36.6081ZM33.2182 23.2081C33.9178 22.6251 33.9178 21.6802 33.2182 21.0971L25.5795 14.7258C25.4426 14.6117 25.2794 14.5374 25.1144 14.4679C24.4916 15.1658 23.7939 15.9583 23.0389 16.8235C23.0436 16.8274 23.0446 16.8329 23.0492 16.8368L30.6879 23.2089C31.3866 23.7904 32.5195 23.7904 33.2182 23.2081ZM48.2236 21.0971L40.5849 14.7258C39.8872 14.1427 38.7533 14.1427 38.0546 14.7258C37.3559 15.308 37.3559 16.253 38.0546 16.836L45.6933 23.2073C46.392 23.7904 47.5249 23.7904 48.2236 23.2073C48.9223 22.6251 48.9223 21.6802 48.2236 21.0971ZM30.5519 30.3563C29.8532 30.9386 29.8532 31.8835 30.5519 32.4666L33.5202 34.9457C34.5349 34.3447 35.5225 33.7577 36.4753 33.1895L33.0832 30.3563C32.3845 29.7733 31.2506 29.7733 30.5519 30.3563Z" fill="#AB6017"/>
</g>
</g>
</g>
<defs>
<clipPath id="clip0_20_37">
<rect width="60" height="50" fill="white" transform="translate(0 0.222221)"/>
</clipPath>
</defs>
</svg>
