<svg width="43" height="44" viewBox="0 0 43 44" fill="none" xmlns="http://www.w3.org/2000/svg">
<g id="7504946_upload_photo_picture_image_icon 1" clip-path="url(#clip0_73_20)">
<path id="Vector" d="M43.1344 3.575V33.825H41.5219C41.6562 33.4125 41.6562 32.8625 41.6562 32.45C41.6562 30.6625 41.2531 29.15 40.4469 27.775V6.325H2.6875V30.9375H4.56875L13.3031 15.95L18.5438 24.75L22.7094 19.1125L26.7406 24.475C25.9344 25.025 25.2625 25.7125 24.725 26.4L22.7094 23.65L18.275 29.5625L13.3031 21.3125L7.79375 30.6625H22.9781C22.9781 30.8 22.9781 30.8 22.9781 30.9375C22.8438 31.35 22.8438 31.9 22.8438 32.3125C22.8438 32.725 22.8438 33 22.8438 33.4125C22.8438 33.55 22.8438 33.55 22.8438 33.6875H0V3.575H43.1344ZM38.4313 12.925C38.4313 15.5375 36.2812 17.7375 33.7281 17.7375C31.175 17.7375 29.025 15.5375 29.025 12.925C29.025 10.3125 31.175 8.1125 33.7281 8.1125C36.2812 8.1125 38.4313 10.45 38.4313 12.925ZM35.7438 12.925C35.7438 11.825 34.8031 10.8625 33.7281 10.8625C32.6531 10.8625 31.7125 11.825 31.7125 12.925C31.7125 14.025 32.6531 14.9875 33.7281 14.9875C34.8031 14.9875 35.7438 14.1625 35.7438 12.925Z" fill="#693420" fill-opacity="0.68"/>
<path id="Vector_2" d="M33.5938 30.9375H36.2812V33.6875H33.5938V36.4375H30.9062V33.6875H28.2188V30.9375H30.9062V28.1875H33.5938V30.9375ZM40.0437 32.3125C40.0437 36.85 36.55 40.425 32.1156 40.425C27.6812 40.425 24.1875 36.85 24.1875 32.3125C24.1875 27.775 27.6812 24.2 32.1156 24.2C36.55 24.2 40.0437 27.9125 40.0437 32.3125ZM37.3562 32.3125C37.3562 29.425 35.0719 26.95 32.1156 26.95C29.1594 26.95 26.875 29.2875 26.875 32.3125C26.875 35.3375 29.1594 37.675 32.1156 37.675C35.0719 37.675 37.3562 35.475 37.3562 32.3125Z" fill="#693420" fill-opacity="0.68"/>
</g>
<defs>
<clipPath id="clip0_73_20">
<rect width="43" height="44" fill="white"/>
</clipPath>
</defs>
</svg>
