<svg width="72" height="61" viewBox="0 0 72 61" fill="none" xmlns="http://www.w3.org/2000/svg">
<g id="11397342_chef_hat_icon 1">
<g id="Icons">
<path id="Vector" fill-rule="evenodd" clip-rule="evenodd" d="M10.2952 35.7742C11.132 39.5301 11.4878 43.3884 11.5332 47.3125C11.5329 47.3237 11.5331 47.3349 11.5335 47.346C11.5557 49.3484 11.4974 51.3671 11.3811 53.3981C11.365 53.6782 11.5816 53.9298 11.9012 54.0024C28.1348 57.6898 43.9442 57.2415 59.3204 52.5758C59.5395 52.5093 59.7056 52.3554 59.7639 52.1645C60.4846 49.8105 61.0099 47.4329 61.3038 45.0265L61.3042 45.0238C61.3043 45.0226 61.3045 45.0215 61.3046 45.0201L61.305 45.0168C61.7297 41.5317 61.6693 37.9886 61.0152 34.3734C66.6553 31.6079 70.4531 26.44 70.4531 20.5265C70.4531 11.7032 61.9979 4.53961 51.5834 4.53961C46.5123 4.53961 41.9057 6.23796 38.513 9C36.3746 7.03918 33.3136 5.81048 29.9167 5.81048C24.183 5.81048 19.4072 9.31143 18.4064 13.9255C17.343 13.6977 16.2297 13.5767 15.0833 13.5767C7.61231 13.5767 1.54688 18.7154 1.54688 25.045C1.54688 29.9467 5.18428 34.1343 10.2952 35.7742ZM59.9183 33.5289C65.3548 31.0199 69.0469 26.1356 69.0469 20.5265C69.0469 12.3607 61.2217 5.73102 51.5834 5.73102C46.6374 5.73102 42.1691 7.4769 38.9901 10.2804C38.971 10.2978 38.9505 10.3144 38.9285 10.33L38.9246 10.3327L38.9209 10.3352L38.9191 10.3365C38.916 10.3387 38.913 10.3407 38.91 10.3427C35.2896 12.7701 30.9511 14.8982 25.2042 15.7476C24.8219 15.8041 24.4574 15.587 24.3907 15.2632C24.3239 14.9393 24.5803 14.6305 24.9625 14.574C30.1438 13.8082 34.1217 11.9461 37.459 9.78931C35.5783 8.07511 32.8943 7.00189 29.9167 7.00189C24.6226 7.00189 20.256 10.3939 19.6836 14.7507C19.6602 14.9281 19.5442 15.0874 19.3673 15.1846C19.1905 15.2817 18.9716 15.3066 18.7709 15.2523C17.6077 14.9377 16.3688 14.7681 15.0833 14.7681C8.38842 14.7681 2.95312 19.3731 2.95312 25.045C2.95312 30.7171 8.38842 35.3221 15.0833 35.3221C19.5711 35.3221 24.1609 34.5884 27.8207 32.1982C28.1281 31.9976 28.5699 32.046 28.8069 32.3064C29.0438 32.5667 28.9866 32.9412 28.6792 33.1418C24.7694 35.6954 19.8778 36.5135 15.0833 36.5135C13.9552 36.5135 12.8592 36.3963 11.8112 36.1755C12.5356 39.6504 12.8668 43.2087 12.9319 46.8237C14.1356 47.0036 15.3427 47.1625 16.5547 47.3011C16.6984 45.5833 16.67 43.8171 16.3876 41.9791C16.3375 41.6531 16.6092 41.3539 16.994 41.3114C17.3789 41.269 17.732 41.4993 17.782 41.8253C18.0809 43.7693 18.1083 45.6365 17.9518 47.4517C18.9467 47.5524 19.9437 47.6393 20.9447 47.7131C20.9647 46.4113 20.9296 45.1099 20.8145 43.8084C20.7855 43.4806 21.076 43.1944 21.463 43.1698C21.85 43.1452 22.1878 43.3915 22.2168 43.7192C22.3374 45.0821 22.3726 46.4448 22.3495 47.8076C31.15 48.3436 40.1221 47.8495 49.2529 46.4763C49.635 46.4187 50.0002 46.635 50.0681 46.9587C50.1359 47.2824 49.8808 47.5918 49.4987 47.6493C40.0195 49.075 30.709 49.5631 21.5827 48.9533L21.5806 48.9532C21.579 48.9531 21.5776 48.953 21.5761 48.9529L21.5606 48.9518C20.816 48.9017 20.0721 48.8447 19.329 48.78C18.6105 48.7174 17.893 48.6477 17.1764 48.5714L17.1044 48.5636C15.713 48.4141 14.3263 48.2381 12.944 48.035C12.9473 49.6715 12.8995 51.3187 12.8122 52.9742C28.4435 56.436 43.6739 55.9922 58.4951 51.5599C59.0677 49.642 59.5065 47.7078 59.7909 45.7549C59.146 45.8945 58.502 46.0302 57.8586 46.162C57.8517 46.1634 57.8448 46.1648 57.8378 46.1662C56.7645 46.3857 55.6931 46.5941 54.624 46.791C54.2447 46.861 53.8699 46.6568 53.7875 46.3356C53.7051 46.0143 53.946 45.6967 54.3251 45.6269C55.2396 45.4585 56.1555 45.2815 57.0731 45.0964C57.2479 44.104 57.2055 42.8923 57.1196 41.8603C57.0922 41.5323 57.3844 41.2473 57.7714 41.2241C58.1586 41.201 58.4951 41.4484 58.5224 41.7764C58.6018 42.7304 58.6384 43.8247 58.5301 44.7957C59.004 44.6957 59.4783 44.5936 59.9531 44.4893C60.2986 41.3656 60.2409 38.1931 59.6966 34.9622C57.2382 35.9566 54.4868 36.5135 51.5834 36.5135C51.1952 36.5135 50.8802 36.2465 50.8802 35.9178C50.8802 35.589 51.1952 35.3221 51.5834 35.3221C54.5925 35.3221 57.4248 34.6759 59.8987 33.538C59.9051 33.5349 59.9117 33.5319 59.9183 33.5289ZM17.467 40.1806C17.4094 39.9299 17.3469 39.6776 17.2797 39.4241C17.1948 39.1034 16.8183 38.9014 16.4396 38.9735C16.0611 39.0455 15.8227 39.3644 15.9078 39.6853C15.9719 39.9276 16.0315 40.1686 16.0867 40.4083C16.1608 40.7311 16.5302 40.9421 16.9111 40.8793C17.2921 40.8164 17.5411 40.5034 17.467 40.1806ZM59.6531 11.2219C63.0242 13.325 65.2136 16.7109 65.2136 20.5265C65.2136 20.8553 65.5286 21.1222 65.9167 21.1222C66.3047 21.1222 66.6198 20.8553 66.6198 20.5265C66.6198 16.3176 64.2056 12.5826 60.4869 10.2625C60.1744 10.0675 59.734 10.1242 59.5038 10.3889C59.2737 10.6537 59.3407 11.0269 59.6531 11.2219ZM54.3333 9.21421C55.3503 9.39102 56.3261 9.66385 57.2469 10.0212C57.5997 10.158 58.0174 10.0265 58.179 9.72759C58.3405 9.42867 58.1853 9.07494 57.8325 8.93793C56.8159 8.54357 55.7387 8.24226 54.6159 8.04711C54.2357 7.98099 53.8637 8.18889 53.7858 8.51093C53.7078 8.83296 53.9532 9.14809 54.3333 9.21421Z" fill="#693420"/>
</g>
</g>
</svg>
